<svg width="24" height="24" viewBox="0 0 24 24" fill="none" xmlns="http://www.w3.org/2000/svg">
<path fill-rule="evenodd" clip-rule="evenodd" d="M8.048 5.55226C7.87298 5.37711 7.66518 5.23815 7.43645 5.14331C7.20773 5.04847 6.96256 4.9996 6.71496 4.99951C6.46735 4.99942 6.22215 5.0481 5.99335 5.14277C5.76456 5.23744 5.55665 5.37624 5.3815 5.55126L5.0295 5.90326C4.68914 5.80635 4.329 5.80259 3.98669 5.89239C3.64438 5.98219 3.33246 6.16225 3.0835 6.41376C2.70964 6.79142 2.49993 7.30136 2.49993 7.83276C2.49993 8.36417 2.70964 8.8741 3.0835 9.25176L3.5 9.67126V14.9998H2V15.9998H3.025C2.77669 16.2431 2.60647 16.5548 2.53604 16.8952C2.46561 17.2357 2.49817 17.5893 2.62957 17.9112C2.76096 18.233 2.98524 18.5085 3.27379 18.7023C3.56235 18.8962 3.90211 18.9998 4.24975 18.9998C4.59739 18.9998 4.93715 18.8962 5.22571 18.7023C5.51426 18.5085 5.73854 18.233 5.86993 17.9112C6.00133 17.5893 6.03389 17.2357 5.96346 16.8952C5.89303 16.5548 5.72281 16.2431 5.4745 15.9998H18.5255C18.2772 16.2431 18.107 16.5548 18.0365 16.8952C17.9661 17.2357 17.9987 17.5893 18.1301 17.9112C18.2615 18.233 18.4857 18.5085 18.7743 18.7023C19.0629 18.8962 19.4026 18.9998 19.7502 18.9998C20.0979 18.9998 20.4376 18.8962 20.7262 18.7023C21.0148 18.5085 21.239 18.233 21.3704 17.9112C21.5018 17.5893 21.5344 17.2357 21.464 16.8952C21.3935 16.5548 21.2233 16.2431 20.975 15.9998H22V14.9998H20V13.4433C20.4294 13.3358 20.8104 13.0876 21.0822 12.7384C21.3541 12.3891 21.5012 11.9589 21.5 11.5163C21.5 10.4213 20.6195 9.53276 19.533 9.53276H9.055C9.03476 9.53282 9.01471 9.52887 8.99601 9.52115C8.9773 9.51342 8.96031 9.50208 8.946 9.48776L8.763 9.30276L8.9475 9.11926C9.12268 8.94424 9.26165 8.73642 9.35649 8.50768C9.45132 8.27893 9.50016 8.03374 9.50021 7.78612C9.50025 7.53849 9.45151 7.29328 9.35676 7.0645C9.26201 6.83572 9.12311 6.62785 8.948 6.45276L8.048 5.55276V5.55226ZM8.058 8.59376L8.2405 8.41176C8.32274 8.32957 8.38798 8.23199 8.4325 8.12457C8.47701 8.01716 8.49992 7.90203 8.49992 7.78576C8.49992 7.66949 8.47701 7.55436 8.4325 7.44695C8.38798 7.33954 8.32274 7.24195 8.2405 7.15976L7.3405 6.25976C7.17458 6.09365 6.94949 6.00024 6.71471 6.00005C6.47993 5.99986 6.25468 6.09292 6.0885 6.25876L5.9135 6.43376L8.0585 8.59376H8.058ZM20.5 11.5163C20.5 10.9653 20.059 10.5328 19.533 10.5328H9.055C8.90297 10.5328 8.75244 10.5028 8.61206 10.4444C8.47168 10.3861 8.34422 10.3005 8.237 10.1928L5.184 7.11876C5.09315 7.02658 4.98487 6.95337 4.86547 6.9034C4.74607 6.85344 4.61793 6.82771 4.4885 6.82771C4.35907 6.82771 4.23093 6.85344 4.11153 6.9034C3.99213 6.95337 3.88385 7.02658 3.793 7.11876C3.60524 7.30908 3.49997 7.56567 3.49997 7.83301C3.49997 8.10036 3.60524 8.35695 3.793 8.54726L7.719 12.4998H19.533C20.06 12.4998 20.5 12.0673 20.5 11.5163ZM7.1375 13.3333C7.2435 13.4398 7.3865 13.4998 7.536 13.4998H19V14.9998H4.5V10.6778L7.1375 13.3333ZM5 17.2498C5 17.4487 4.92098 17.6394 4.78033 17.7801C4.63968 17.9207 4.44891 17.9998 4.25 17.9998C4.05109 17.9998 3.86032 17.9207 3.71967 17.7801C3.57902 17.6394 3.5 17.4487 3.5 17.2498C3.5 17.0508 3.57902 16.8601 3.71967 16.7194C3.86032 16.5788 4.05109 16.4998 4.25 16.4998C4.44891 16.4998 4.63968 16.5788 4.78033 16.7194C4.92098 16.8601 5 17.0508 5 17.2498ZM19.75 17.9998C19.9489 17.9998 20.1397 17.9207 20.2803 17.7801C20.421 17.6394 20.5 17.4487 20.5 17.2498C20.5 17.0508 20.421 16.8601 20.2803 16.7194C20.1397 16.5788 19.9489 16.4998 19.75 16.4998C19.5511 16.4998 19.3603 16.5788 19.2197 16.7194C19.079 16.8601 19 17.0508 19 17.2498C19 17.4487 19.079 17.6394 19.2197 17.7801C19.3603 17.9207 19.5511 17.9998 19.75 17.9998Z" fill="#818181"/>
</svg>
