<svg width="17" height="18" viewBox="0 0 17 18" fill="none" xmlns="http://www.w3.org/2000/svg">
<path d="M7.14446 8.12495C6.37531 8.12495 5.62344 7.89687 4.98391 7.46955C4.34439 7.04224 3.84594 6.43487 3.5516 5.72427C3.25726 5.01367 3.18024 4.23174 3.3303 3.47737C3.48035 2.723 3.85073 2.03007 4.3946 1.4862C4.93847 0.942328 5.63141 0.571947 6.38578 0.421894C7.14015 0.27184 7.92208 0.348853 8.63268 0.643194C9.34328 0.937535 9.95064 1.43598 10.378 2.07551C10.8053 2.71503 11.0334 3.46691 11.0334 4.23606C11.0334 5.26746 10.6236 6.25661 9.89432 6.98592C9.16501 7.71523 8.17586 8.12495 7.14446 8.12495ZM7.14446 1.50273C6.59507 1.50273 6.05802 1.66564 5.60121 1.97087C5.14441 2.27609 4.78837 2.70992 4.57813 3.21749C4.36789 3.72507 4.31288 4.28358 4.42006 4.82242C4.52724 5.36126 4.7918 5.85621 5.18028 6.24469C5.56876 6.63317 6.06371 6.89773 6.60255 7.00491C7.14138 7.11209 7.6999 7.05708 8.20747 6.84684C8.71504 6.63659 9.14888 6.28056 9.4541 5.82375C9.75933 5.36695 9.92224 4.8299 9.92224 4.2805C9.92224 3.91572 9.85039 3.55451 9.7108 3.21749C9.5712 2.88048 9.36659 2.57426 9.10865 2.31632C8.85071 2.05838 8.54449 1.85377 8.20747 1.71417C7.87046 1.57457 7.50925 1.50273 7.14446 1.50273ZM10.2389 8.79717C7.23247 8.12066 4.08726 8.4465 1.28335 9.72495C0.897738 9.90915 0.572387 10.1991 0.345185 10.5611C0.117984 10.923 -0.00171834 11.342 1.86385e-05 11.7694V15.0749C1.8637e-05 15.1479 0.0143886 15.2201 0.0423079 15.2875C0.0702272 15.355 0.111149 15.4162 0.162737 15.4678C0.214325 15.5194 0.275569 15.5603 0.342972 15.5882C0.410375 15.6161 0.482618 15.6305 0.555574 15.6305C0.628531 15.6305 0.700773 15.6161 0.768176 15.5882C0.835579 15.5603 0.896823 15.5194 0.948411 15.4678C0.999999 15.4162 1.04092 15.355 1.06884 15.2875C1.09676 15.2201 1.11113 15.1479 1.11113 15.0749V11.7694C1.10629 11.5531 1.1647 11.3401 1.27917 11.1566C1.39365 10.973 1.55922 10.8269 1.75557 10.7361C3.44461 9.95617 5.28408 9.55604 7.14446 9.56384C8.18686 9.56251 9.22569 9.6856 10.2389 9.9305V8.79717ZM10.3167 14.0805H13.7278V14.8583H10.3167V14.0805Z" fill="#818181"/>
<path d="M16.4446 10.7804H13.5724V11.8915H15.8891V16.5415H8.01687V11.8915H11.5169V12.1249C11.5169 12.2722 11.5754 12.4135 11.6796 12.5177C11.7838 12.6219 11.9251 12.6804 12.0724 12.6804C12.2198 12.6804 12.3611 12.6219 12.4653 12.5177C12.5695 12.4135 12.628 12.2722 12.628 12.1249V9.96376C12.628 9.81642 12.5695 9.67511 12.4653 9.57092C12.3611 9.46673 12.2198 9.4082 12.0724 9.4082C11.9251 9.4082 11.7838 9.46673 11.6796 9.57092C11.5754 9.67511 11.5169 9.81642 11.5169 9.96376V10.7804H7.46132C7.31397 10.7804 7.17267 10.839 7.06848 10.9431C6.96429 11.0473 6.90576 11.1886 6.90576 11.336V17.0971C6.90576 17.2444 6.96429 17.3857 7.06848 17.4899C7.17267 17.5941 7.31397 17.6526 7.46132 17.6526H16.4446C16.592 17.6526 16.7333 17.5941 16.8375 17.4899C16.9417 17.3857 17.0002 17.2444 17.0002 17.0971V11.336C17.0002 11.1886 16.9417 11.0473 16.8375 10.9431C16.7333 10.839 16.592 10.7804 16.4446 10.7804Z" fill="#818181"/>
</svg>
