<svg width="19" height="18" viewBox="0 0 19 18" fill="none" xmlns="http://www.w3.org/2000/svg">
<path d="M1 4.5099H10.046H9.212H9.523H1ZM1.38 3.5099H14.6L13.27 1.9139C13.2053 1.84924 13.1313 1.7979 13.048 1.7599C12.9647 1.72124 12.878 1.7019 12.788 1.7019H3.192C3.10267 1.7019 3.016 1.72124 2.932 1.7599C2.84933 1.7979 2.776 1.84924 2.712 1.9139L1.38 3.5099ZM6 9.6639L8 8.6639L10 9.6639V4.5099H6V9.6639ZM10.03 16.7019H1.616C1.172 16.7019 0.792 16.5436 0.476 16.2269C0.158666 15.9109 0 15.5309 0 15.0869V4.1889C0 4.00024 0.0309999 3.81824 0.0929999 3.6429C0.155667 3.46824 0.249 3.30824 0.373 3.1629L1.931 1.2929C2.07567 1.10224 2.25667 0.956237 2.474 0.854904C2.69133 0.752904 2.92533 0.701904 3.176 0.701904H12.786C13.0367 0.701904 13.273 0.752904 13.495 0.854904C13.717 0.956237 13.902 1.1019 14.05 1.2919L15.627 3.2019C15.751 3.3519 15.8443 3.51557 15.907 3.6929C15.969 3.8709 16 4.05524 16 4.2459V8.0119C15.8627 7.9719 15.717 7.94424 15.563 7.9289C15.4097 7.91357 15.2603 7.9059 15.115 7.9059H15V4.5099H11V9.6619C10.814 9.7899 10.6293 9.9619 10.446 10.1779C10.2627 10.3939 10.1293 10.6052 10.046 10.8119L8 9.7979L5 11.2979V4.5099H1V15.0869C1 15.2662 1.05767 15.4136 1.173 15.5289C1.28833 15.6442 1.43567 15.7019 1.615 15.7019H9.523C9.583 15.8886 9.65767 16.0632 9.747 16.2259C9.83633 16.3879 9.931 16.5466 10.031 16.7019H10.03ZM14.596 17.2979V14.2979H11.596V13.2979H14.596V10.2979H15.596V13.2979H18.596V14.2979H15.596V17.2979H14.596Z" fill="#818181"/>
</svg>
