<svg width="24" height="25" viewBox="0 0 24 25" fill="none" xmlns="http://www.w3.org/2000/svg">
<rect width="24" height="25" fill="#D9D9D9"/>
<g id="See all staff informtaion" clip-path="url(#clip0_0_1)">
<rect width="1440" height="1024" transform="translate(-21 -158)" fill="#F4F5FA"/>
<g id="Frame 56">
<rect id="Rectangle 32" x="-21" y="-158" width="260" height="1024" fill="#F4F5FA"/>
<g id="ListItem">
<g id="ListItem_2">
<path d="M-21 -11H200C211.598 -11 221 -1.59798 221 10C221 21.598 211.598 31 200 31H-21V-11Z" fill="url(#paint0_linear_0_1)"/>
<g id="Container">
<g id="clarity:employee-line">
<g id="clarityEmployeeLine0">
<path id="Vector" d="M10.9534 11.9837C10.0304 11.9837 9.12813 11.71 8.3607 11.1973C7.59327 10.6845 6.99513 9.95564 6.64192 9.10292C6.28871 8.25019 6.1963 7.31188 6.37636 6.40664C6.55643 5.50139 7.00088 4.66987 7.65353 4.01723C8.30617 3.36458 9.13769 2.92013 10.0429 2.74006C10.9482 2.56 11.8865 2.65241 12.7392 3.00562C13.5919 3.35883 14.3208 3.95697 14.8336 4.7244C15.3463 5.49183 15.62 6.39408 15.62 7.31706C15.62 8.55474 15.1284 9.74172 14.2532 10.6169C13.378 11.4921 12.191 11.9837 10.9534 11.9837ZM10.9534 4.03706C10.2941 4.03706 9.64962 4.23256 9.10146 4.59883C8.5533 4.9651 8.12605 5.48569 7.87376 6.09478C7.62147 6.70387 7.55546 7.37409 7.68408 8.02069C7.81269 8.6673 8.13016 9.26124 8.59634 9.72742C9.06251 10.1936 9.65646 10.5111 10.3031 10.6397C10.9497 10.7683 11.6199 10.7023 12.229 10.45C12.8381 10.1977 13.3587 9.77046 13.7249 9.22229C14.0912 8.67413 14.2867 8.02966 14.2867 7.37039C14.2867 6.93265 14.2005 6.4992 14.033 6.09478C13.8654 5.69036 13.6199 5.3229 13.3104 5.01337C13.0009 4.70384 12.6334 4.45831 12.229 4.29079C11.8246 4.12328 11.3911 4.03706 10.9534 4.03706ZM14.6667 12.7904C11.059 11.9786 7.28471 12.3696 3.92003 13.9037C3.45729 14.1248 3.06687 14.4727 2.79423 14.9071C2.52159 15.3414 2.37794 15.8442 2.38003 16.3571V20.3237C2.38003 20.4113 2.39727 20.498 2.43077 20.5788C2.46428 20.6597 2.51338 20.7332 2.57529 20.7951C2.6372 20.857 2.71069 20.9061 2.79157 20.9396C2.87246 20.9731 2.95915 20.9904 3.04669 20.9904C3.13424 20.9904 3.22093 20.9731 3.30182 20.9396C3.3827 20.9061 3.45619 20.857 3.5181 20.7951C3.58 20.7332 3.62911 20.6597 3.66261 20.5788C3.69612 20.498 3.71336 20.4113 3.71336 20.3237V16.3571C3.70756 16.0975 3.77764 15.8419 3.91501 15.6217C4.05239 15.4014 4.25107 15.226 4.48669 15.1171C6.51354 14.1812 8.72091 13.701 10.9534 13.7104C12.2042 13.7088 13.4508 13.8565 14.6667 14.1504V12.7904ZM14.76 19.1304H18.8534V20.0637H14.76V19.1304Z" fill="white"/>
<path id="Vector_2" d="M22.1134 15.1703H18.6667V16.5037H21.4467V22.0837H12.0001V16.5037H16.2001V16.7837C16.2001 16.9605 16.2703 17.1301 16.3953 17.2551C16.5204 17.3801 16.6899 17.4503 16.8667 17.4503C17.0436 17.4503 17.2131 17.3801 17.3382 17.2551C17.4632 17.1301 17.5334 16.9605 17.5334 16.7837V14.1903C17.5334 14.0135 17.4632 13.844 17.3382 13.7189C17.2131 13.5939 17.0436 13.5237 16.8667 13.5237C16.6899 13.5237 16.5204 13.5939 16.3953 13.7189C16.2703 13.844 16.2001 14.0135 16.2001 14.1903V15.1703H11.3334C11.1566 15.1703 10.987 15.2406 10.862 15.3656C10.737 15.4906 10.6667 15.6602 10.6667 15.837V22.7503C10.6667 22.9272 10.737 23.0967 10.862 23.2218C10.987 23.3468 11.1566 23.417 11.3334 23.417H22.1134C22.2902 23.417 22.4598 23.3468 22.5848 23.2218C22.7098 23.0967 22.7801 22.9272 22.7801 22.7503V15.837C22.7801 15.6602 22.7098 15.4906 22.5848 15.3656C22.4598 15.2406 22.2902 15.1703 22.1134 15.1703Z" fill="white"/>
</g>
</g>
</g>
</g>
</g>
</g>
</g>
<defs>
<linearGradient id="paint0_linear_0_1" x1="-21" y1="10" x2="221" y2="10" gradientUnits="userSpaceOnUse">
<stop stop-color="#31A3FA"/>
<stop offset="1" stop-color="#264CC8"/>
</linearGradient>
<clipPath id="clip0_0_1">
<rect width="1440" height="1024" fill="white" transform="translate(-21 -158)"/>
</clipPath>
</defs>
</svg>
