<svg width="24" height="25" viewBox="0 0 24 25" fill="none" xmlns="http://www.w3.org/2000/svg">
<path fill-rule="evenodd" clip-rule="evenodd" d="M17 8.85718C17 11.6187 14.7615 13.8572 12 13.8572C9.2385 13.8572 7 11.6187 7 8.85718C7 6.09568 9.2385 3.85718 12 3.85718C14.7615 3.85718 17 6.09568 17 8.85718ZM16 8.85718C16 9.91804 15.5786 10.9355 14.8284 11.6856C14.0783 12.4358 13.0609 12.8572 12 12.8572C10.9391 12.8572 9.92172 12.4358 9.17157 11.6856C8.42143 10.9355 8 9.91804 8 8.85718C8 7.79631 8.42143 6.7789 9.17157 6.02875C9.92172 5.2786 10.9391 4.85718 12 4.85718C13.0609 4.85718 14.0783 5.2786 14.8284 6.02875C15.5786 6.7789 16 7.79631 16 8.85718ZM8.957 15.2847L8.9625 15.2957L9 15.3692H14.8745C14.989 15.1522 15.2485 14.8062 15.5 14.8637C16.065 14.9922 16.634 15.1712 17.1805 15.3917L17.197 15.3837L17.2025 15.3947L17.2065 15.4022C19.264 16.2382 21 17.6552 21 19.1422V21.8572H3V19.1422C3 17.2547 5.798 15.4787 8.5 14.8637C8.7205 14.8137 8.8515 15.0737 8.957 15.2847ZM16.352 16.1487C16.1375 16.0736 15.9205 16.0057 15.7015 15.9452L15.4785 16.3692H8.3965L8.1895 15.9757L8.0095 16.0297C8.006 16.0627 8.003 16.0997 8.0015 16.1417C7.995 16.3142 8.008 16.5187 8.0365 16.7267C8.06575 16.9436 8.11257 17.1578 8.1765 17.3672C8.52773 17.4088 8.85296 17.5732 9.09476 17.8313C9.33655 18.0894 9.47935 18.4247 9.49795 18.7779C9.51654 19.1311 9.40972 19.4795 9.19636 19.7616C8.983 20.0437 8.67683 20.2413 8.3319 20.3196C7.98698 20.3978 7.6255 20.3517 7.31129 20.1893C6.99709 20.0269 6.75038 19.7587 6.61473 19.4321C6.47908 19.1054 6.46321 18.7413 6.56994 18.4041C6.67666 18.0669 6.89911 17.7783 7.198 17.5892L7.194 17.5752C7.12737 17.3414 7.07774 17.1031 7.0455 16.8622C7.02429 16.7082 7.01027 16.5534 7.0035 16.3982C6.3855 16.6622 5.809 16.9812 5.326 17.3332C4.365 18.0352 4 18.6912 4 19.1422V20.8572H20V19.1422C20 18.6907 19.635 18.0347 18.674 17.3337C18.255 17.0324 17.8087 16.7709 17.341 16.5527C17.3207 16.8237 17.2792 17.0926 17.217 17.3572H17.5C17.5928 17.3572 17.6838 17.3831 17.7628 17.432C17.8417 17.4808 17.9055 17.5506 17.947 17.6337L18.447 18.6337C18.482 18.7032 18.5 18.7797 18.5 18.8572V19.8572C18.5 19.9898 18.4473 20.117 18.3536 20.2107C18.2598 20.3045 18.1326 20.3572 18 20.3572H17V19.3572H17.5V18.9752L17.191 18.3572H15.809L15.5 18.9752V19.3572H16V20.3572H15C14.8674 20.3572 14.7402 20.3045 14.6464 20.2107C14.5527 20.117 14.5 19.9898 14.5 19.8572V18.8572C14.5 18.7797 14.518 18.7032 14.553 18.6337L15.053 17.6337C15.0945 17.5506 15.1583 17.4808 15.2372 17.432C15.3162 17.3831 15.4072 17.3572 15.5 17.3572H16.181C16.187 17.3372 16.1935 17.3172 16.1995 17.2952C16.2465 17.1347 16.2885 16.9352 16.317 16.7272C16.345 16.5212 16.358 16.3197 16.352 16.1487ZM8.5 18.8572C8.5 19.1442 8.269 19.3647 8 19.3647C7.731 19.3647 7.5 19.1447 7.5 18.8572C7.5 18.5702 7.731 18.3497 8 18.3497C8.269 18.3497 8.5 18.5697 8.5 18.8572Z" fill="white"/>
</svg>
