<svg width="23" height="20" viewBox="0 0 23 20" fill="none" xmlns="http://www.w3.org/2000/svg">
<path d="M1 11.1426L11.2857 0.856934L21.5714 11.1426" stroke="#62676F" stroke-linecap="round" stroke-linejoin="round"/>
<path d="M3.28577 8.85693V17.9998C3.28577 18.3029 3.40617 18.5936 3.6205 18.8079C3.83483 19.0222 4.12552 19.1426 4.42862 19.1426H7.85719C8.1603 19.1426 8.45099 19.0222 8.66532 18.8079C8.87964 18.5936 9.00005 18.3029 9.00005 17.9998V13.4284C9.00005 13.1253 9.12046 12.8346 9.33479 12.6202C9.54911 12.4059 9.8398 12.2855 10.1429 12.2855H12.4286C12.7317 12.2855 13.0224 12.4059 13.2367 12.6202C13.4511 12.8346 13.5715 13.1253 13.5715 13.4284V17.9998C13.5715 18.3029 13.6919 18.5936 13.9062 18.8079C14.1205 19.0222 14.4112 19.1426 14.7143 19.1426H18.1429C18.446 19.1426 18.7367 19.0222 18.951 18.8079C19.1654 18.5936 19.2858 18.3029 19.2858 17.9998V8.85693" stroke="#62676F" stroke-linecap="round" stroke-linejoin="round"/>
</svg>
