<svg width="24" height="24" viewBox="0 0 24 24" fill="none" xmlns="http://www.w3.org/2000/svg">
<path d="M10.9532 11.1267C10.0303 11.1267 9.12801 10.853 8.36058 10.3402C7.59315 9.82741 6.99501 9.09858 6.6418 8.24586C6.28859 7.39314 6.19618 6.45483 6.37624 5.54958C6.5563 4.64434 7.00076 3.81282 7.65341 3.16017C8.30605 2.50753 9.13757 2.06307 10.0428 1.88301C10.9481 1.70294 11.8864 1.79536 12.7391 2.14857C13.5918 2.50177 14.3207 3.09991 14.8334 3.86734C15.3462 4.63477 15.6199 5.53702 15.6199 6.46C15.6199 7.69768 15.1282 8.88467 14.2531 9.75984C13.3779 10.635 12.1909 11.1267 10.9532 11.1267ZM10.9532 3.18C10.294 3.18 9.6495 3.3755 9.10134 3.74177C8.55317 4.10804 8.12593 4.62864 7.87364 5.23773C7.62135 5.84681 7.55534 6.51704 7.68395 7.16364C7.81257 7.81024 8.13004 8.40418 8.59622 8.87036C9.06239 9.33653 9.65633 9.654 10.3029 9.78262C10.9495 9.91124 11.6198 9.84523 12.2288 9.59294C12.8379 9.34064 13.3585 8.9134 13.7248 8.36524C14.0911 7.81707 14.2866 7.17261 14.2866 6.51334C14.2866 6.0756 14.2004 5.64214 14.0328 5.23773C13.8653 4.83331 13.6198 4.46584 13.3103 4.15631C13.0007 3.84679 12.6333 3.60125 12.2288 3.43374C11.8244 3.26622 11.391 3.18 10.9532 3.18ZM14.6666 11.9333C11.0589 11.1215 7.28459 11.5125 3.91991 13.0467C3.45717 13.2677 3.06675 13.6157 2.7941 14.05C2.52146 14.4843 2.37782 14.9872 2.37991 15.5V19.4667C2.37991 19.5542 2.39715 19.6409 2.43065 19.7218C2.46416 19.8027 2.51326 19.8762 2.57517 19.9381C2.63707 20 2.71057 20.0491 2.79145 20.0826C2.87233 20.1161 2.95902 20.1333 3.04657 20.1333C3.13412 20.1333 3.22081 20.1161 3.30169 20.0826C3.38258 20.0491 3.45607 20 3.51798 19.9381C3.57988 19.8762 3.62899 19.8027 3.66249 19.7218C3.69599 19.6409 3.71324 19.5542 3.71324 19.4667V15.5C3.70743 15.2405 3.77752 14.9849 3.91489 14.7646C4.05226 14.5443 4.25095 14.369 4.48657 14.26C6.51342 13.3241 8.72078 12.844 10.9532 12.8533C12.2041 12.8517 13.4507 12.9995 14.6666 13.2933V11.9333ZM14.7599 18.2733H18.8532V19.2067H14.7599V18.2733Z" fill="#62676F"/>
<path d="M22.1132 14.3133H18.6665V15.6466H21.4465V21.2266H11.9998V15.6466H16.1998V15.9266C16.1998 16.1034 16.2701 16.273 16.3951 16.398C16.5201 16.5231 16.6897 16.5933 16.8665 16.5933C17.0433 16.5933 17.2129 16.5231 17.3379 16.398C17.4629 16.273 17.5332 16.1034 17.5332 15.9266V13.3333C17.5332 13.1565 17.4629 12.9869 17.3379 12.8619C17.2129 12.7369 17.0433 12.6666 16.8665 12.6666C16.6897 12.6666 16.5201 12.7369 16.3951 12.8619C16.2701 12.9869 16.1998 13.1565 16.1998 13.3333V14.3133H11.3332C11.1564 14.3133 10.9868 14.3835 10.8618 14.5086C10.7367 14.6336 10.6665 14.8031 10.6665 14.98V21.8933C10.6665 22.0701 10.7367 22.2397 10.8618 22.3647C10.9868 22.4897 11.1564 22.56 11.3332 22.56H22.1132C22.29 22.56 22.4595 22.4897 22.5846 22.3647C22.7096 22.2397 22.7798 22.0701 22.7798 21.8933V14.98C22.7798 14.8031 22.7096 14.6336 22.5846 14.5086C22.4595 14.3835 22.29 14.3133 22.1132 14.3133Z" fill="#62676F"/>
</svg>
