<svg width="23" height="20" viewBox="0 0 23 20" fill="none" xmlns="http://www.w3.org/2000/svg">
<path d="M1 11.1429L11.2857 0.857178L21.5714 11.1429" stroke="#F5F6FA" stroke-linecap="round" stroke-linejoin="round"/>
<path d="M3.28564 8.85718V18C3.28564 18.3031 3.40605 18.5938 3.62038 18.8082C3.83471 19.0225 4.1254 19.1429 4.4285 19.1429H7.85707C8.16018 19.1429 8.45087 19.0225 8.66519 18.8082C8.87952 18.5938 8.99993 18.3031 8.99993 18V13.4286C8.99993 13.1255 9.12034 12.8348 9.33467 12.6205C9.54899 12.4062 9.83968 12.2857 10.1428 12.2857H12.4285C12.7316 12.2857 13.0223 12.4062 13.2366 12.6205C13.451 12.8348 13.5714 13.1255 13.5714 13.4286V18C13.5714 18.3031 13.6918 18.5938 13.9061 18.8082C14.1204 19.0225 14.4111 19.1429 14.7142 19.1429H18.1428C18.4459 19.1429 18.7366 19.0225 18.9509 18.8082C19.1652 18.5938 19.2856 18.3031 19.2856 18V8.85718" stroke="#F5F6FA" stroke-linecap="round" stroke-linejoin="round"/>
</svg>
