<svg width="24" height="24" viewBox="0 0 24 24" fill="none" xmlns="http://www.w3.org/2000/svg">
<path fill-rule="evenodd" clip-rule="evenodd" d="M8.048 5.55251C7.87298 5.37736 7.66518 5.23839 7.43645 5.14355C7.20773 5.04871 6.96256 4.99985 6.71496 4.99976C6.46735 4.99966 6.22215 5.04834 5.99335 5.14301C5.76456 5.23768 5.55665 5.37649 5.3815 5.55151L5.0295 5.90351C4.68914 5.80659 4.329 5.80284 3.98669 5.89263C3.64438 5.98243 3.33246 6.16249 3.0835 6.41401C2.70964 6.79166 2.49993 7.3016 2.49993 7.83301C2.49993 8.36441 2.70964 8.87435 3.0835 9.25201L3.5 9.67151V15H2V16H3.025C2.77669 16.2433 2.60647 16.555 2.53604 16.8955C2.46561 17.2359 2.49817 17.5896 2.62957 17.9114C2.76096 18.2333 2.98524 18.5087 3.27379 18.7026C3.56235 18.8965 3.90211 19 4.24975 19C4.59739 19 4.93715 18.8965 5.22571 18.7026C5.51426 18.5087 5.73854 18.2333 5.86993 17.9114C6.00133 17.5896 6.03389 17.2359 5.96346 16.8955C5.89303 16.555 5.72281 16.2433 5.4745 16H18.5255C18.2772 16.2433 18.107 16.555 18.0365 16.8955C17.9661 17.2359 17.9987 17.5896 18.1301 17.9114C18.2615 18.2333 18.4857 18.5087 18.7743 18.7026C19.0629 18.8965 19.4026 19 19.7502 19C20.0979 19 20.4376 18.8965 20.7262 18.7026C21.0148 18.5087 21.239 18.2333 21.3704 17.9114C21.5018 17.5896 21.5344 17.2359 21.464 16.8955C21.3935 16.555 21.2233 16.2433 20.975 16H22V15H20V13.4435C20.4294 13.336 20.8104 13.0879 21.0822 12.7386C21.3541 12.3894 21.5012 11.9591 21.5 11.5165C21.5 10.4215 20.6195 9.53301 19.533 9.53301H9.055C9.03476 9.53306 9.01471 9.52911 8.99601 9.52139C8.9773 9.51367 8.96031 9.50232 8.946 9.48801L8.763 9.30301L8.9475 9.11951C9.12268 8.94449 9.26165 8.73667 9.35649 8.50792C9.45132 8.27918 9.50016 8.03399 9.50021 7.78636C9.50025 7.53873 9.45151 7.29353 9.35676 7.06474C9.26201 6.83596 9.12311 6.62809 8.948 6.45301L8.048 5.55301V5.55251ZM8.058 8.59401L8.2405 8.41201C8.32274 8.32982 8.38798 8.23223 8.4325 8.12482C8.47701 8.01741 8.49992 7.90228 8.49992 7.78601C8.49992 7.66974 8.47701 7.55461 8.4325 7.44719C8.38798 7.33978 8.32274 7.24219 8.2405 7.16001L7.3405 6.26001C7.17458 6.0939 6.94949 6.00048 6.71471 6.00029C6.47993 6.0001 6.25468 6.09316 6.0885 6.25901L5.9135 6.43401L8.0585 8.59401H8.058ZM20.5 11.5165C20.5 10.9655 20.059 10.533 19.533 10.533H9.055C8.90297 10.533 8.75244 10.503 8.61206 10.4447C8.47168 10.3863 8.34422 10.3008 8.237 10.193L5.184 7.11901C5.09315 7.02682 4.98487 6.95361 4.86547 6.90365C4.74607 6.85368 4.61793 6.82795 4.4885 6.82795C4.35907 6.82795 4.23093 6.85368 4.11153 6.90365C3.99213 6.95361 3.88385 7.02682 3.793 7.11901C3.60524 7.30932 3.49997 7.56591 3.49997 7.83326C3.49997 8.1006 3.60524 8.35719 3.793 8.54751L7.719 12.5H19.533C20.06 12.5 20.5 12.0675 20.5 11.5165ZM7.1375 13.3335C7.2435 13.44 7.3865 13.5 7.536 13.5H19V15H4.5V10.678L7.1375 13.3335ZM5 17.25C5 17.4489 4.92098 17.6397 4.78033 17.7803C4.63968 17.921 4.44891 18 4.25 18C4.05109 18 3.86032 17.921 3.71967 17.7803C3.57902 17.6397 3.5 17.4489 3.5 17.25C3.5 17.0511 3.57902 16.8603 3.71967 16.7197C3.86032 16.579 4.05109 16.5 4.25 16.5C4.44891 16.5 4.63968 16.579 4.78033 16.7197C4.92098 16.8603 5 17.0511 5 17.25ZM19.75 18C19.9489 18 20.1397 17.921 20.2803 17.7803C20.421 17.6397 20.5 17.4489 20.5 17.25C20.5 17.0511 20.421 16.8603 20.2803 16.7197C20.1397 16.579 19.9489 16.5 19.75 16.5C19.5511 16.5 19.3603 16.579 19.2197 16.7197C19.079 16.8603 19 17.0511 19 17.25C19 17.4489 19.079 17.6397 19.2197 17.7803C19.3603 17.921 19.5511 18 19.75 18Z" fill="#656B73"/>
</svg>
