<svg width="24" height="24" viewBox="0 0 24 24" fill="none" xmlns="http://www.w3.org/2000/svg">
<path d="M12.5 17H11.5C11.2 17 11 17.2 11 17.5C11 17.8 11.2 18 11.5 18H12.5C12.8 18 13 17.8 13 17.5C13 17.2 12.8 17 12.5 17ZM7.5 13H6.5C6.2 13 6 13.2 6 13.5C6 13.8 6.2 14 6.5 14H7.5C7.8 14 8 13.8 8 13.5C8 13.2 7.8 13 7.5 13ZM12.5 13H11.5C11.2 13 11 13.2 11 13.5C11 13.8 11.2 14 11.5 14H12.5C12.8 14 13 13.8 13 13.5C13 13.2 12.8 13 12.5 13ZM7.5 17H6.5C6.2 17 6 17.2 6 17.5C6 17.8 6.2 18 6.5 18H7.5C7.8 18 8 17.8 8 17.5C8 17.2 7.8 17 7.5 17ZM13.5 7.5H12.5V6.5C12.5 6.2 12.3 6 12 6C11.7 6 11.5 6.2 11.5 6.5V7.5H10.5C10.2 7.5 10 7.7 10 8C10 8.3 10.2 8.5 10.5 8.5H11.5V9.5C11.5 9.8 11.7 10 12 10C12.3 10 12.5 9.8 12.5 9.5V8.5H13.5C13.8 8.5 14 8.3 14 8C14 7.7 13.8 7.5 13.5 7.5ZM21.5 7H18V2.5C18 2.2 17.8 2 17.5 2H6.5C6.2 2 6 2.2 6 2.5V7H2.5C2.2 7 2 7.2 2 7.5V21.5C2 21.8 2.2 22 2.5 22H21.5C21.8 22 22 21.8 22 21.5V7.5C22 7.2 21.8 7 21.5 7ZM21 21H3V8H6.5C6.8 8 7 7.8 7 7.5V3H17V7.5C17 7.8 17.2 8 17.5 8H21V21ZM17.5 17H16.5C16.2 17 16 17.2 16 17.5C16 17.8 16.2 18 16.5 18H17.5C17.8 18 18 17.8 18 17.5C18 17.2 17.8 17 17.5 17ZM16.5 13C16.2 13 16 13.2 16 13.5C16 13.8 16.2 14 16.5 14H17.5C17.8 14 18 13.8 18 13.5C18 13.2 17.8 13 17.5 13H16.5Z" fill="#62676F"/>
</svg>
