<svg width="24" height="24" viewBox="0 0 24 24" fill="none" xmlns="http://www.w3.org/2000/svg">
<path d="M20.9678 18.448C20.9581 18.7932 20.8791 19.1329 20.7356 19.4469C20.5921 19.7609 20.3869 20.0429 20.1322 20.2761C19.8776 20.5093 19.5787 20.689 19.2532 20.8044C18.9278 20.9198 18.5825 20.9687 18.2378 20.948C16.0848 20.96 13.9318 20.948 11.7788 20.948C11.6462 20.948 11.519 20.8953 11.4253 20.8016C11.3315 20.7078 11.2788 20.5806 11.2788 20.448C11.2788 20.3154 11.3315 20.1882 11.4253 20.0945C11.519 20.0007 11.6462 19.948 11.7788 19.948C13.9788 19.948 16.1788 19.98 18.3788 19.948C19.4858 19.932 19.9678 19.1 19.9678 18.11V5.64701C19.9755 5.33228 19.887 5.02269 19.714 4.75964C19.541 4.49659 19.2918 4.29262 18.9998 4.17501C18.6546 4.08079 18.2953 4.04863 17.9388 4.08001H11.7788C11.6462 4.08001 11.519 4.02734 11.4253 3.93357C11.3315 3.8398 11.2788 3.71262 11.2788 3.58001C11.2788 3.44741 11.3315 3.32023 11.4253 3.22646C11.519 3.13269 11.6462 3.08001 11.7788 3.08001C14.0028 3.08001 16.2438 2.99501 18.4658 3.08001C18.8061 3.08862 19.1412 3.16481 19.4518 3.30416C19.7623 3.4435 20.0421 3.64322 20.2747 3.89168C20.5074 4.14015 20.6883 4.4324 20.8069 4.75144C20.9256 5.07047 20.9796 5.40991 20.9658 5.75001L20.9678 18.448Z" fill="#656B73"/>
<path d="M3.17578 11.663C3.09129 11.7449 3.04183 11.8564 3.03778 11.974C3.03778 11.989 3.03778 12.002 3.03178 12.017C3.02578 12.032 3.03178 12.044 3.03778 12.058C3.04178 12.1759 3.09123 12.2877 3.17578 12.37L6.84478 16.039C6.93908 16.1301 7.06538 16.1805 7.19648 16.1794C7.32758 16.1782 7.45299 16.1256 7.54569 16.0329C7.6384 15.9402 7.69098 15.8148 7.69212 15.6837C7.69326 15.5526 7.64286 15.4263 7.55178 15.332L4.73678 12.516H15.4788C15.6114 12.516 15.7386 12.4633 15.8323 12.3696C15.9261 12.2758 15.9788 12.1486 15.9788 12.016C15.9788 11.8834 15.9261 11.7562 15.8323 11.6625C15.7386 11.5687 15.6114 11.516 15.4788 11.516H4.73678L7.55178 8.70002C7.64286 8.60572 7.69326 8.47941 7.69212 8.34832C7.69098 8.21722 7.6384 8.09181 7.54569 7.99911C7.45299 7.9064 7.32758 7.85382 7.19648 7.85268C7.06538 7.85154 6.93908 7.90194 6.84478 7.99302L3.17578 11.663Z" fill="#656B73"/>
</svg>
