<svg width="25" height="24" viewBox="0 0 25 24" fill="none" xmlns="http://www.w3.org/2000/svg">
<path d="M11.0457 7.6001H3.4507C3.11657 7.6001 2.8457 7.87097 2.8457 8.2051V15.8001C2.8457 16.1342 3.11657 16.4051 3.4507 16.4051H11.0457C11.3798 16.4051 11.6507 16.1342 11.6507 15.8001V8.2051C11.6507 7.87097 11.3798 7.6001 11.0457 7.6001Z" stroke="#818181" stroke-linecap="round" stroke-linejoin="round"/>
<path d="M21.7405 7.6001H14.1455C13.8114 7.6001 13.5405 7.87097 13.5405 8.2051V15.8001C13.5405 16.1342 13.8114 16.4051 14.1455 16.4051H21.7405C22.0747 16.4051 22.3455 16.1342 22.3455 15.8001V8.2051C22.3455 7.87097 22.0747 7.6001 21.7405 7.6001Z" stroke="#818181" stroke-linecap="round" stroke-linejoin="round"/>
</svg>
