<svg width="17" height="18" viewBox="0 0 17 18" fill="none" xmlns="http://www.w3.org/2000/svg">
<path d="M8.0957 11.342L6.3497 9.64C6.24304 9.54667 6.12604 9.49667 5.9987 9.49C5.87137 9.48333 5.75237 9.53533 5.6417 9.646C5.53504 9.75267 5.4817 9.87067 5.4817 10C5.4817 10.1293 5.53504 10.2473 5.6417 10.354L8.0307 12.742C8.19204 12.904 8.38037 12.985 8.5957 12.985C8.81104 12.985 8.99937 12.904 9.1607 12.742L11.5497 10.354C11.643 10.2607 11.694 10.147 11.7027 10.013C11.7114 9.879 11.6604 9.75667 11.5497 9.646C11.4564 9.55267 11.3424 9.505 11.2077 9.503C11.0744 9.501 10.9524 9.54667 10.8417 9.64L9.0957 11.342V7.192C9.0957 7.05 9.04804 6.93133 8.9527 6.836C8.8567 6.74 8.7377 6.692 8.5957 6.692C8.4537 6.692 8.3347 6.74 8.2387 6.836C8.14337 6.93133 8.0957 7.05 8.0957 7.192V11.342ZM2.2107 18C1.76404 18 1.38304 17.8427 1.0677 17.528C0.753037 17.2133 0.595703 16.8323 0.595703 16.385V3.615C0.595703 3.16833 0.753037 2.78733 1.0677 2.472C1.38237 2.15733 1.76337 2 2.2107 2H6.9107C6.82004 1.49 6.94237 1.029 7.2777 0.617C7.61304 0.205667 8.05237 0 8.5957 0C9.15237 0 9.59837 0.205667 9.9337 0.617C10.2684 1.029 10.384 1.49 10.2807 2H14.9807C15.4274 2 15.8084 2.15733 16.1237 2.472C16.4384 2.78667 16.5957 3.16767 16.5957 3.615V16.385C16.5957 16.8317 16.4384 17.2127 16.1237 17.528C15.809 17.8427 15.428 18 14.9807 18H2.2107ZM2.2107 17H14.9807C15.134 17 15.275 16.936 15.4037 16.808C15.5317 16.6793 15.5957 16.5383 15.5957 16.385V3.615C15.5957 3.46167 15.5317 3.32067 15.4037 3.192C15.275 3.064 15.134 3 14.9807 3H2.2107C2.05737 3 1.91637 3.064 1.7877 3.192C1.6597 3.32067 1.5957 3.46167 1.5957 3.615V16.385C1.5957 16.5383 1.6597 16.6793 1.7877 16.808C1.91637 16.936 2.05737 17 2.2107 17ZM8.5957 2.442C8.81237 2.442 8.99137 2.37133 9.1327 2.23C9.27404 2.08867 9.34504 1.90933 9.3457 1.692C9.3457 1.47533 9.2747 1.29633 9.1327 1.155C8.9907 1.01367 8.8117 0.942667 8.5957 0.942C8.37904 0.942 8.20004 1.013 8.0587 1.155C7.91737 1.297 7.84637 1.476 7.8457 1.692C7.8457 1.90867 7.9167 2.088 8.0587 2.23C8.2007 2.372 8.3797 2.44267 8.5957 2.442Z" fill="#818181"/>
</svg>
