<svg width="24" height="24" viewBox="0 0 24 24" fill="none" xmlns="http://www.w3.org/2000/svg">
<path d="M3.03219 5.55199C3.04189 5.20683 3.12086 4.86714 3.2644 4.5531C3.40794 4.23906 3.61313 3.95706 3.86778 3.72387C4.12243 3.49067 4.42135 3.31103 4.74678 3.19561C5.07221 3.08019 5.41752 3.03135 5.76219 3.05199C7.91519 3.03999 10.0682 3.05199 12.2212 3.05199C12.3538 3.05199 12.481 3.10466 12.5747 3.19843C12.6685 3.2922 12.7212 3.41938 12.7212 3.55199C12.7212 3.6846 12.6685 3.81177 12.5747 3.90554C12.481 3.99931 12.3538 4.05199 12.2212 4.05199C10.0212 4.05199 7.82119 4.01999 5.62119 4.05199C4.51419 4.06799 4.03219 4.89998 4.03219 5.88999L4.03219 18.353C4.02447 18.6677 4.11302 18.9773 4.286 19.2404C4.45899 19.5034 4.70815 19.7074 5.00019 19.825C5.34545 19.9192 5.70469 19.9514 6.06119 19.92H12.2212C12.3538 19.92 12.481 19.9727 12.5747 20.0664C12.6685 20.1602 12.7212 20.2874 12.7212 20.42C12.7212 20.5526 12.6685 20.6798 12.5747 20.7735C12.481 20.8673 12.3538 20.92 12.2212 20.92C9.99719 20.92 7.75619 21.005 5.53419 20.92C5.19392 20.9114 4.85876 20.8352 4.54821 20.6958C4.23766 20.5565 3.95792 20.3568 3.72528 20.1083C3.49263 19.8599 3.31172 19.5676 3.19308 19.2486C3.07443 18.9295 3.02043 18.5901 3.03419 18.25L3.03219 5.55199Z" fill="#656B73"/>
<path d="M20.8242 12.337C20.9087 12.2551 20.9582 12.1436 20.9622 12.026C20.9622 12.011 20.9622 11.998 20.9682 11.983C20.9742 11.968 20.9682 11.956 20.9622 11.942C20.9582 11.8241 20.9088 11.7123 20.8242 11.63L17.1552 7.96098C17.0609 7.8699 16.9346 7.81951 16.8035 7.82065C16.6724 7.82179 16.547 7.87437 16.4543 7.96707C16.3616 8.05978 16.309 8.18518 16.3079 8.31628C16.3067 8.44738 16.3571 8.57368 16.4482 8.66798L19.2632 11.484L8.52122 11.484C8.38861 11.484 8.26143 11.5367 8.16766 11.6304C8.0739 11.7242 8.02122 11.8514 8.02122 11.984C8.02122 12.1166 8.0739 12.2438 8.16766 12.3375C8.26143 12.4313 8.38861 12.484 8.52122 12.484L19.2632 12.484L16.4482 15.3C16.3571 15.3943 16.3067 15.5206 16.3079 15.6517C16.309 15.7828 16.3616 15.9082 16.4543 16.0009C16.547 16.0936 16.6724 16.1462 16.8035 16.1473C16.9346 16.1485 17.0609 16.0981 17.1552 16.007L20.8242 12.337Z" fill="#656B73"/>
</svg>
