<svg width="1440" height="1024" viewBox="0 0 1440 1024" fill="none" xmlns="http://www.w3.org/2000/svg">
<g clip-path="url(#clip0_101_2)">
<rect width="1440" height="1024" fill="white"/>
<g clip-path="url(#clip1_101_2)">
<path d="M1115.8 923.142H1249.2C1247.14 920.658 1244.94 918.366 1242.64 916.121H1122.36C1120.06 918.318 1117.86 920.658 1115.8 923.142Z" fill="#559CFF"/>
<path d="M1216.75 899.021C1206.25 894.531 1194.65 892 1182.48 892C1170.3 892 1158.7 894.531 1148.2 899.021H1216.75Z" fill="#559CFF"/>
<path d="M1102.76 1012.7C1103.81 1015.09 1104.92 1017.43 1106.16 1019.72H1258.84C1260.08 1017.43 1261.19 1015.09 1262.24 1012.7H1102.76Z" fill="#559CFF"/>
<path d="M1096.29 988.53C1096.58 990.919 1096.91 993.259 1097.39 995.552H1267.61C1268.09 993.259 1268.42 990.919 1268.71 988.53H1096.29Z" fill="#559CFF"/>
<path d="M1104.63 940.289C1103.48 942.582 1102.47 944.922 1101.56 947.31H1263.49C1262.58 944.922 1261.52 942.582 1260.42 940.289H1104.63Z" fill="#559CFF"/>
<path d="M1096.86 964.41C1096.48 966.702 1096.19 969.043 1096 971.431H1269C1268.81 969.043 1268.52 966.702 1268.14 964.41H1096.86Z" fill="#559CFF"/>
</g>
<g clip-path="url(#clip2_101_2)">
<path d="M1379.64 150.22C1376.68 153.18 1371.85 153.154 1368.84 150.168C1365.85 147.182 1365.82 142.327 1368.78 139.367C1371.74 136.407 1376.57 136.433 1379.58 139.419C1382.57 142.405 1382.6 147.26 1379.64 150.22Z" fill="#559CFF"/>
<path d="M1331.06 150.22C1328.1 153.18 1323.27 153.154 1320.26 150.168C1317.27 147.182 1317.25 142.327 1320.21 139.367C1323.17 136.407 1327.99 136.433 1331.01 139.419C1333.99 142.405 1334.02 147.26 1331.06 150.22Z" fill="#559CFF"/>
<path d="M1282.48 150.22C1279.52 153.18 1274.69 153.154 1271.68 150.168C1268.69 147.182 1268.67 142.327 1271.63 139.367C1274.59 136.407 1279.42 136.433 1282.43 139.419C1285.41 142.405 1285.44 147.26 1282.48 150.22Z" fill="#559CFF"/>
<path d="M1408.77 181.793C1405.81 184.753 1400.98 184.727 1397.97 181.741C1394.98 178.755 1394.95 173.9 1397.91 170.94C1400.87 167.98 1405.7 168.006 1408.72 170.992C1411.7 173.978 1411.73 178.833 1408.77 181.793Z" fill="#559CFF"/>
<path d="M1360.22 181.793C1357.26 184.753 1352.43 184.727 1349.41 181.741C1346.43 178.755 1346.4 173.9 1349.36 170.94C1352.32 167.98 1357.15 168.006 1360.16 170.992C1363.15 173.978 1363.18 178.833 1360.22 181.793Z" fill="#559CFF"/>
<path d="M1311.64 181.793C1308.68 184.753 1303.85 184.727 1300.84 181.741C1297.85 178.755 1297.82 173.9 1300.78 170.94C1303.74 167.98 1308.57 168.006 1311.59 170.992C1314.57 173.978 1314.6 178.833 1311.64 181.793Z" fill="#559CFF"/>
<path d="M1263.06 181.793C1260.1 184.753 1255.27 184.727 1252.26 181.741C1249.27 178.755 1249.25 173.9 1252.21 170.94C1255.17 167.98 1260 168.006 1263.01 170.992C1265.99 173.978 1266.02 178.833 1263.06 181.793Z" fill="#559CFF"/>
<path d="M1379.64 89.4886C1376.68 92.4486 1371.85 92.4227 1368.84 89.4367C1365.85 86.4508 1365.82 81.5954 1368.78 78.6354C1371.74 75.6754 1376.57 75.7014 1379.58 78.6873C1382.57 81.6733 1382.6 86.5287 1379.64 89.4886Z" fill="#559CFF"/>
<path d="M1331.06 89.4886C1328.1 92.4486 1323.27 92.4227 1320.26 89.4367C1317.27 86.4508 1317.25 81.5954 1320.21 78.6354C1323.17 75.6754 1327.99 75.7014 1331.01 78.6873C1333.99 81.6733 1334.02 86.5287 1331.06 89.4886Z" fill="#559CFF"/>
<path d="M1282.48 89.4886C1279.52 92.4486 1274.69 92.4227 1271.68 89.4367C1268.69 86.4508 1268.67 81.5954 1271.63 78.6354C1274.59 75.6754 1279.42 75.7014 1282.43 78.6873C1285.41 81.6733 1285.44 86.5287 1282.48 89.4886Z" fill="#559CFF"/>
<path d="M1408.77 121.062C1405.81 124.022 1400.98 123.996 1397.97 121.01C1394.98 118.024 1394.95 113.168 1397.91 110.208C1400.87 107.248 1405.7 107.274 1408.72 110.26C1411.7 113.246 1411.73 118.102 1408.77 121.062Z" fill="#559CFF"/>
<path d="M1360.22 121.062C1357.26 124.022 1352.43 123.996 1349.41 121.01C1346.43 118.024 1346.4 113.168 1349.36 110.208C1352.32 107.248 1357.15 107.274 1360.16 110.26C1363.15 113.246 1363.18 118.102 1360.22 121.062Z" fill="#559CFF"/>
<path d="M1311.64 121.062C1308.68 124.022 1303.85 123.996 1300.84 121.01C1297.85 118.024 1297.82 113.168 1300.78 110.208C1303.74 107.248 1308.57 107.274 1311.59 110.26C1314.57 113.246 1314.6 118.102 1311.64 121.062Z" fill="#559CFF"/>
<path d="M1263.06 121.062C1260.1 124.022 1255.27 123.996 1252.26 121.01C1249.27 118.024 1249.25 113.168 1252.21 110.208C1255.17 107.248 1260 107.274 1263.01 110.26C1265.99 113.246 1266.02 118.102 1263.06 121.062Z" fill="#559CFF"/>
<path d="M1408.77 53.0602C1405.81 56.0202 1400.98 55.9942 1397.97 53.0083C1394.98 50.0224 1394.95 45.167 1397.91 42.207C1400.87 39.247 1405.7 39.273 1408.72 42.2589C1411.7 45.2449 1411.73 50.1003 1408.77 53.0602Z" fill="#559CFF"/>
<path d="M1360.22 53.0602C1357.26 56.0202 1352.43 55.9942 1349.41 53.0083C1346.43 50.0224 1346.4 45.167 1349.36 42.207C1352.32 39.247 1357.15 39.273 1360.16 42.2589C1363.15 45.2449 1363.18 50.1003 1360.22 53.0602Z" fill="#559CFF"/>
<path d="M1311.64 53.0602C1308.68 56.0202 1303.85 55.9942 1300.84 53.0083C1297.85 50.0224 1297.82 45.167 1300.78 42.207C1303.74 39.247 1308.57 39.273 1311.59 42.2589C1314.57 45.2449 1314.6 50.1003 1311.64 53.0602Z" fill="#559CFF"/>
<path d="M1263.06 53.0602C1260.1 56.0202 1255.27 55.9942 1252.26 53.0083C1249.27 49.9964 1249.25 45.167 1252.21 42.207C1255.17 39.247 1260 39.273 1263.01 42.2589C1265.99 45.2449 1266.02 50.1003 1263.06 53.0602Z" fill="#559CFF"/>
</g>
<g clip-path="url(#clip3_101_2)">
<path d="M124 98.372H113.231V87.585H110.345V98.372H99.5763V101.235H110.345V112H113.231V101.235H124V98.372Z" fill="#D9D9D9"/>
<path d="M88.4746 98.372H77.706V87.585H74.8195V98.372H64.0509V101.235H74.8195V112H77.706V101.235H88.4746V98.372Z" fill="#D9D9D9"/>
<path d="M52.9491 98.372H42.1805V87.585H39.294V98.372H28.5254V101.235H39.294V112H42.1805V101.235H52.9491V98.372Z" fill="#D9D9D9"/>
<path d="M17.4237 98.372H6.65509V87.585H3.76864V98.372H-7V101.235H3.76864V112H6.65509V101.235H17.4237V98.372Z" fill="#D9D9D9"/>
<path d="M124 64.0357H113.231V53.2487H110.345V64.0357H99.5763V66.8989H110.345V77.6637H113.231V66.8989H124V64.0357Z" fill="#D9D9D9"/>
<path d="M88.4746 64.0357H77.706V53.2487H74.8195V64.0357H64.0509V66.8989H74.8195V77.6637H77.706V66.8989H88.4746V64.0357Z" fill="#D9D9D9"/>
<path d="M52.9491 64.0357H42.1805V53.2487H39.294V64.0357H28.5254V66.8989H39.294V77.6637H42.1805V66.8989H52.9491V64.0357Z" fill="#D9D9D9"/>
<path d="M17.4237 64.0357H6.65509V53.2487H3.76864V64.0357H-7V66.8989H3.76864V77.6637H6.65509V66.8989H17.4237V64.0357Z" fill="#D9D9D9"/>
<path d="M124 30.7648H113.231V20H110.345V30.7648H99.5763V33.6502H110.345V44.415H113.231V33.6502H124V30.7648Z" fill="#D9D9D9"/>
<path d="M88.4746 30.7648H77.706V20H74.8195V30.7648H64.0509V33.6502H74.8195V44.415H77.706V33.6502H88.4746V30.7648Z" fill="#D9D9D9"/>
<path d="M52.9491 30.7648H42.1805V20H39.294V30.7648H28.5254V33.6502H39.294V44.415H42.1805V33.6502H52.9491V30.7648Z" fill="#D9D9D9"/>
<path d="M17.4237 30.7648H6.65509V20H3.76864V30.7648H-7V33.6502H3.76864V44.415H6.65509V33.6502H17.4237V30.7648Z" fill="#D9D9D9"/>
</g>
</g>
<defs>
<clipPath id="clip0_101_2">
<rect width="1440" height="1024" fill="white"/>
</clipPath>
<clipPath id="clip1_101_2">
<rect width="173" height="173" fill="white" transform="translate(1096 892)"/>
</clipPath>
<clipPath id="clip2_101_2">
<rect width="161" height="144" fill="white" transform="translate(1250 40)"/>
</clipPath>
<clipPath id="clip3_101_2">
<rect width="131" height="92" fill="white" transform="translate(-7 20)"/>
</clipPath>
</defs>
</svg>
